<?xml version="1.0" encoding="utf-8"?>
<!-- Generator: Adobe Illustrator 25.4.1, SVG Export Plug-In . SVG Version: 6.00 Build 0)  -->
<svg version="1.1" id="Camada_1" xmlns="http://www.w3.org/2000/svg" xmlns:xlink="http://www.w3.org/1999/xlink" x="0px" y="0px"
	 viewBox="0 0 220.1 121" style="enable-background:new 0 0 220.1 121;" xml:space="preserve">
<style type="text/css">
	.st0{clip-path:url(#SVGID_00000108990064492268962860000013137606450216201390_);}
	.st1{fill-rule:evenodd;clip-rule:evenodd;fill:#EA1D2C;}
</style>
<g>
	<defs>
		<rect id="SVGID_1_" width="220.1" height="121"/>
	</defs>
	<clipPath id="SVGID_00000133517630998612454020000003534234151703096232_">
		<use xlink:href="#SVGID_1_"  style="overflow:visible;"/>
	</clipPath>
	<g style="clip-path:url(#SVGID_00000133517630998612454020000003534234151703096232_);">
		<path class="st1" d="M0,70.8h17l9.5-48.1h-17L0,70.8z M10.6,14.7h16l2.6-13.4h-16L10.6,14.7z M23.9,84.2h16.8l10.2-51.9h12.3
			l1.9-9.6H52.7l0.4-2.2c0.8-4.1,2.1-8.8,8.4-8.8c3.8,0,7.4,0.4,10.8,1.9l1.9-10.1c-3.9-1.4-8-2.1-12.1-2.1
			C48.7,1.4,39.4,9.7,36,22.7h-5.8l-1.8,9.6H34L23.9,84.2z M78,70.8c19.7,0,33.3-19,33.3-34.5c0-11.3-10.1-16.2-19.7-16.2
			c-21.6,0-33.4,20.5-33.4,34.5C58.3,65.9,68.5,70.8,78,70.8z M164.4,36.3c0,15.5-13.7,34.5-33.3,34.5c-9.5,0-19.7-4.9-19.7-16.2
			c0-14.1,11.8-34.5,33.3-34.5C154.3,20.1,164.4,25,164.4,36.3z M190.3,69.8h16.5l13.3-68.4h-16.6l-4,20.3c-2.2-0.5-4.4-0.8-6.7-0.8
			c-16.3,0-31.1,21.7-31.1,37.3c0,6.4,4,12.7,10.7,12.7c9.5,0,16.2-4.9,18.9-9.5h1L190.3,69.8z M141.4,103.8
			C141.4,103.8,141.4,103.8,141.4,103.8L141.4,103.8L141.4,103.8z M94.6,118.8c18,1.1,34.5-4.3,46.9-15l5.1,14.3l7.3-36.5l-34-0.1
			l11.5,8.8c-10.2,9.9-28.8,16.9-44,15.2c-15.6-1.7-28-12.4-33.1-23.9H53C56.2,99.6,71.9,117.4,94.6,118.8z"/>
	</g>
</g>
</svg>
