<?xml version="1.0" encoding="utf-8"?>
<!-- Generator: Adobe Illustrator 25.4.1, SVG Export Plug-In . SVG Version: 6.00 Build 0)  -->
<svg version="1.1" id="Camada_1" xmlns="http://www.w3.org/2000/svg" xmlns:xlink="http://www.w3.org/1999/xlink" x="0px" y="0px"
	 viewBox="0 0 500 514.7" style="enable-background:new 0 0 500 514.7;" xml:space="preserve">
<style type="text/css">
	.st0{fill-rule:evenodd;clip-rule:evenodd;fill:#FF2D20;}
</style>
<path class="st0" d="M499.7,116.4c0.2,0.7,0.3,1.4,0.3,2.1V229c0,2.9-1.5,5.6-4,7l-92.7,53.4v105.8c0,2.9-1.5,5.5-4,7L205.6,513.7
	c-0.4,0.3-0.9,0.4-1.4,0.6c-0.2,0.1-0.4,0.2-0.5,0.2c-1.4,0.4-2.8,0.4-4.1,0c-0.2-0.1-0.4-0.2-0.6-0.3c-0.4-0.2-0.9-0.3-1.3-0.5
	L4,402.2c-2.5-1.4-4-4.1-4-7V63.8c0-0.7,0.1-1.4,0.3-2.1c0.1-0.2,0.2-0.4,0.3-0.7c0.2-0.4,0.3-0.9,0.5-1.2c0.2-0.3,0.4-0.5,0.6-0.7
	c0.2-0.3,0.4-0.7,0.7-0.9c0.2-0.2,0.5-0.4,0.8-0.6C3.4,57.2,3.7,57,4,56.8h0l96.8-55.7c2.5-1.4,5.6-1.4,8.1,0l96.8,55.7h0
	c0.3,0.2,0.6,0.5,0.9,0.7c0.3,0.2,0.6,0.4,0.8,0.6c0.3,0.3,0.5,0.6,0.7,0.9c0.2,0.2,0.4,0.5,0.5,0.7c0.2,0.4,0.4,0.8,0.5,1.2
	c0.1,0.2,0.2,0.4,0.3,0.7c0.2,0.7,0.3,1.4,0.3,2.1v207l80.6-46.4V118.5c0-0.7,0.1-1.4,0.3-2.1c0.1-0.2,0.2-0.5,0.3-0.7
	c0.2-0.4,0.3-0.9,0.5-1.2c0.2-0.3,0.4-0.5,0.5-0.7c0.2-0.3,0.4-0.7,0.7-0.9c0.2-0.2,0.5-0.4,0.8-0.6c0.3-0.2,0.6-0.5,0.9-0.7h0
	l96.8-55.7c2.5-1.4,5.6-1.4,8.1,0l96.8,55.7c0.3,0.2,0.6,0.5,0.9,0.7c0.3,0.2,0.5,0.4,0.8,0.6c0.3,0.3,0.5,0.6,0.7,0.9
	c0.2,0.2,0.4,0.5,0.5,0.7c0.2,0.4,0.4,0.8,0.5,1.2C499.5,116,499.7,116.2,499.7,116.4z M483.9,224.4v-91.9L450,152l-46.8,26.9v91.9
	L483.9,224.4L483.9,224.4z M387.1,390.6v-91.9l-46,26.3l-131.4,75v92.8C209.7,492.7,387.1,390.6,387.1,390.6z M16.1,77.7v312.8
	l177.4,102.1v-92.8l-92.7-52.5l0,0l0,0c-0.3-0.2-0.6-0.4-0.9-0.7c-0.3-0.2-0.5-0.4-0.8-0.6l0,0c-0.3-0.3-0.4-0.6-0.7-0.8
	c-0.2-0.3-0.4-0.5-0.6-0.8l0,0c-0.2-0.3-0.3-0.7-0.4-1c-0.1-0.3-0.3-0.6-0.4-0.9v0c-0.1-0.4-0.1-0.8-0.2-1.2c0-0.3-0.1-0.6-0.1-0.9
	v0V124.2L50,97.2L16.1,77.7L16.1,77.7z M104.8,17.4L24.2,63.8l80.6,46.4l80.6-46.4L104.8,17.4L104.8,17.4z M146.8,307l46.8-26.9
	V77.7l-33.9,19.5l-46.8,26.9v202.4C112.9,326.5,146.8,307,146.8,307z M395.2,72.1l-80.6,46.4l80.6,46.4l80.6-46.4
	C475.8,118.5,395.2,72.1,395.2,72.1z M387.1,178.9L340.3,152l-33.9-19.5v91.9l46.8,26.9l33.9,19.5
	C387.1,270.8,387.1,178.9,387.1,178.9z M201.6,386l118.2-67.5l59.1-33.7l-80.6-46.4l-92.8,53.4l-84.5,48.7
	C121.1,340.4,201.6,386,201.6,386z"/>
</svg>
